<svg height="477.60001pt" viewBox="0 0 477.60001 477.60001" width="477.60001pt" xmlns="http://www.w3.org/2000/svg"><path d="m477.601562 238.800781c0 131.886719-106.914062 238.800781-238.800781 238.800781s-238.800781-106.914062-238.800781-238.800781 106.914062-238.800781 238.800781-238.800781 238.800781 106.914062 238.800781 238.800781zm0 0" fill="#382b73"/><path d="m445.398438 238.800781c0 114.101563-92.496094 206.597657-206.597657 206.597657-114.101562 0-206.597656-92.496094-206.597656-206.597657 0-114.101562 92.496094-206.597656 206.597656-206.597656 114.101563 0 206.597657 92.496094 206.597657 206.597656zm0 0" fill="#473080"/><path d="m364.828125 371.445312c0-.015624 0-.03125 0-.046874-.003906-.070313-.007813-.140626-.011719-.207032-.003906-.058594-.007812-.113281-.011718-.167968-.007813-.066407-.011719-.128907-.015626-.195313-.007812-.078125-.015624-.152344-.023437-.230469-.003906-.035156-.003906-.066406-.007813-.097656-.015624-.105469-.027343-.214844-.042968-.320312l-.28125-2.035157-.835938-6.03125-1.734375-12.484375-1.46875-10.578125c-1.144531-8.230469-5.945312-15.425781-12.945312-19.660156-1.050781-.636719-2.148438-1.207031-3.296875-1.703125l-32.558594-11-5.882812-6.941406v-9.015625c4.238281-5.535157 6.578124-12.769531 7.832031-20.042969 3.628906-.160156 6.992187-4.785156 7.695312-10.8125.605469-5.15625-.921875-9.765625-3.5625-11.609375.871094-5.003906 1.246094-10.074219.515625-14.300781 0-.015625-.003906-.03125-.007812-.046875-.011719-.078125-.027344-.15625-.042969-.234375-.007813-.058594-.019531-.113282-.03125-.167969-.015625-.089844-.035156-.179687-.054687-.269531-.015626-.085938-.035157-.167969-.050782-.253906-.015625-.050782-.027344-.101563-.039062-.152344-.019532-.097656-.042969-.195313-.066406-.289063-.007813-.027343-.015626-.054687-.019532-.082031-.03125-.117188-.0625-.238281-.09375-.359375-.011718-.035156-.019531-.070313-.027344-.101563-.035156-.121093-.070312-.238281-.105468-.355468 0-.003906 0-.007813-.003906-.015625-.035157-.125-.078126-.25-.117188-.371094-.007812-.023437-.011719-.046875-.019531-.066406-.042969-.125-.085938-.25-.128907-.371094-1.445312-3.972656-4.183593-6.160156-6.957031-7.351563-.382812-.164062-.765625-.304687-1.140625-.433593-1.082031-.367188-2.144531-.597657-3.105468-.738281-.242188-.035157-.476563-.066407-.707032-.089844-.132812-.015625-.269531-.027344-.402344-.039063-.742187-.070312-1.390624-.085937-1.898437-.082031-.0625 0-.121094 0-.175781 0-.113282.003906-.214844.003906-.3125.007812-.046875.003907-.09375.003907-.136719.007813-.367187.015625-.574219.039063-.574219.039063-.046875-.171876-.097656-.34375-.15625-.511719-.316406-.964844-.78125-1.90625-1.414062-2.808594-.039063-.050781-.074219-.105469-.113282-.15625-.65625-.898437-1.480468-1.761719-2.5-2.566406-.121093-.09375-.246093-.191407-.367187-.285157-.191406-.136718-.386719-.277343-.585937-.414062-.402344-.273438-.828126-.539062-1.285157-.796875-.152343-.085937-.304687-.171875-.460937-.257813-1.023438-.550781-2.167969-1.0625-3.453125-1.53125-8.097657-2.957031-25.601563-3.601562-34.324219 13.839844-.085938.179688-.175781.355469-.257812.535156-.027344.0625-.058594.121094-.085938.183594-.058594.121094-.109375.242188-.164062.359375-.03125.070313-.0625.136719-.09375.207031-.050782.117188-.101563.234376-.152344.355469-.03125.070313-.058594.136719-.089844.207031-.046875.117188-.097656.238282-.144531.359376-.027344.066406-.054688.132812-.082031.199218-.054688.144532-.109376.292969-.167969.4375-.015625.039063-.03125.082032-.042969.121094-.070312.1875-.136719.375-.203125.5625-.019531.050781-.035156.101562-.050781.152344-.050782.140625-.097656.285156-.148438.429687-.019531.058594-.039062.121094-.058594.179688-.039062.132812-.082031.261719-.125.398437-.019531.0625-.039062.128906-.0625.195313-.039062.132812-.078124.265625-.117187.398437-.019531.0625-.039063.125-.054687.191406-.042969.144532-.082032.289063-.121094.433594-.015625.050782-.03125.097656-.042969.148438-.050781.195312-.101563.390625-.152344.589844-.007812.03125-.011719.058593-.019531.085937-.039062.171875-.082031.339844-.121094.511719-.015625.054687-.027344.113281-.039062.167968-.03125.140626-.0625.285157-.09375.421876-.015625.070312-.027344.140624-.042969.210937-.027344.132813-.054687.265625-.082031.398437-.015625.066407-.027344.132813-.042969.203126-.027344.148437-.058594.300781-.082031.449218-.007813.046875-.019532.097656-.027344.144532-.074219.402343-.140625.808593-.203125 1.21875-.007813.046874-.015625.097656-.023437.152343-.019532.152344-.042969.300781-.066407.453125-.007812.0625-.015625.125-.023437.1875-.019532.144532-.039063.289063-.058594.433594-.007812.0625-.015625.125-.023438.1875-.015624.148438-.035156.292969-.050781.441406-.007812.058594-.011719.117188-.019531.171875-.015625.171875-.035156.34375-.054688.515625 0 .035156-.003906.066406-.007812.097656-.019531.207032-.039062.414063-.054688.621094-.003906.027344-.003906.054688-.007812.082032-.015625.179687-.027344.359374-.042969.535156-.003906.054687-.003906.105468-.007812.15625-.011719.148437-.019531.300781-.027344.453125-.007813.0625-.011719.125-.015625.1875-.007812.15625-.015625.3125-.023438.46875 0 .042969-.003906.089843-.003906.132812-.007812.171875-.015625.34375-.019531.515625-.003906.039063-.003906.074219-.003906.113282-.015625.414062-.027344.824218-.03125 1.234374 0 .046876-.003907.09375-.003907.136719 0 .164063 0 .324219-.003906.488281v.148438c0 .15625 0 .308594.003906.460938v.164062c.003907.164062.003907.328125.007813.492188v.113281c.011719.386719.019531.769531.035156 1.152343-.167969 0-.335937.011719-.5.03125-3.890625.457032-6.429687 6.023438-5.679687 12.4375.726562 6.1875 4.253906 10.898438 7.992187 10.816407 1.257813 7.269531 3.59375 14.5 7.832031 20.039062v9.019531l-5.878906 6.9375-.285156.09375-3.554688 1.199219-1.421874-10.246093c-1.167969-8.402344-6.152344-15.730469-13.394532-19.929688-.914062-.527344-1.863281-1.007812-2.847656-1.433594l-14.933594-5.042968c-.003906-.011719-.007812-.023438-.011718-.035157l-5.777344-1.953125c-.003906-.003906-.003906-.003906-.003906-.003906l-11.539063-3.898438.015625.039063-.3125-.105469-5.878906-6.941406-6.113282 4.953125 6.113282-4.953125v-9.015625c.015625-.023437.03125-.046875.050781-.066406 1.160156-1.53125 2.179687-3.183594 3.070313-4.933594.074218-.148437.148437-.292969.222656-.441406 1.449218-2.941407 2.554687-6.132813 3.386718-9.417969.042969-.164062.085938-.328125.125-.492188.382813-1.550781.703126-3.121093.976563-4.691406 3.625-.160156 6.988281-4.785156 7.695313-10.8125.53125-4.558594-.597657-8.6875-2.691407-10.859375.003907-.019531.003907-.039062.007813-.058593.007812-.089844.019531-.175782.027344-.265626l.011718-.085937c.007813-.089844.019532-.175781.03125-.265625.003906-.050781.011719-.101562.015625-.152344.007813-.074218.015625-.144531.023438-.21875.003906-.042968.007812-.085937.011719-.128906.007812-.085938.015624-.167969.027343-.25.003907-.046875.007813-.089844.011719-.136719.007812-.078125.015625-.160156.023438-.238281.003906-.042969.007812-.089844.011718-.132812.007813-.089844.015625-.179688.023438-.269532 0-.03125.007812-.0625.007812-.097656.007813-.097656.015625-.195312.023438-.292969.003906-.027343.003906-.058593.007812-.082031.007813-.105469.015625-.210938.023438-.3125 0-.019531.003906-.042969.003906-.066406.015625-.25.035156-.503906.050781-.753906.023438-.382813.039063-.765626.058594-1.144532 0-.027344 0-.050781.003906-.078125.003907-.097656.007813-.195312.011719-.289062 0-.042969 0-.085938.003906-.128907 0-.085937.003906-.171874.007813-.261718 0-.023438 0-.050782 0-.078125.003906-.101563.007812-.199219.007812-.300781 0-.027344.003907-.054688.003907-.082032 0-.097656.003906-.199218.003906-.300781 0-.023437 0-.050781 0-.078125.003906-.097656.003906-.195312.003906-.292969 0-.035156 0-.066406 0-.101562 0-.085938 0-.171875 0-.261719 0-.042969 0-.089844 0-.132812 0-.082032 0-.164063 0-.246094 0-.042969 0-.078125-.003906-.117188 0-.085937 0-.167968-.003906-.25 0-.046875 0-.089844 0-.136718-.003907-.082032-.003907-.160157-.003907-.242188 0-.042969-.003906-.082031-.003906-.125-.003906-.085938-.003906-.164062-.007813-.246094 0-.042968 0-.082031-.003906-.125 0-.082031-.003906-.167968-.007812-.25-.003906-.039062-.003906-.078125-.003906-.117187-.003907-.085938-.007813-.167969-.015626-.253907 0-.039062-.003906-.082031-.003906-.121093-.003906-.078125-.007812-.15625-.011718-.230469-.003907-.042969-.003907-.089844-.007813-.132812-.007813-.082032-.011719-.167969-.015625-.25-.003906-.039063-.007812-.078126-.007812-.117188-.007813-.085938-.011719-.171875-.019532-.257812 0-.03125-.003906-.066407-.007812-.101563-.007813-.089844-.015625-.183594-.023438-.273437 0-.03125-.003906-.058594-.007812-.085938-.027344-.367188-.066406-.726562-.105469-1.085938 0 0 0-.003906 0-.007812-.015625-.117188-.027344-.230469-.042969-.347656-.003906-.015625-.003906-.03125-.007812-.046875-.011719-.101563-.023438-.203125-.039063-.300781-.003906-.03125-.007812-.058594-.011719-.089844-.011718-.082032-.023437-.167969-.035156-.253906-.007812-.039063-.011718-.078126-.019531-.117188-.011719-.078125-.023437-.15625-.035156-.234375-.003907-.039063-.011719-.078125-.019531-.117187-.011719-.074219-.023438-.144532-.035157-.21875-.007812-.046876-.015625-.09375-.023437-.140626-.011719-.066406-.023438-.128906-.035156-.195312-.007813-.050781-.015626-.097656-.027344-.148438-.011719-.066406-.023438-.128906-.035156-.195312-.007813-.046875-.019532-.09375-.027344-.140625-.015625-.066406-.027344-.132813-.039063-.195313-.011719-.046874-.023437-.09375-.03125-.144531-.015625-.066406-.027343-.132812-.042969-.195312-.007812-.042969-.019531-.085938-.027343-.128907-.015625-.066406-.03125-.132812-.042969-.199218-.011719-.046875-.023438-.09375-.035156-.144532-.015625-.058593-.027344-.113281-.042969-.171874-.011719-.050782-.023437-.101563-.035156-.15625-.015625-.054688-.03125-.113282-.046875-.167969-.011719-.054688-.023438-.101563-.039063-.15625-.015625-.050781-.03125-.109375-.042969-.164063-.015624-.050781-.027343-.101562-.042968-.15625-.019532-.058594-.035156-.117187-.050782-.175781-.015624-.042969-.027343-.089844-.039062-.132813-.019531-.066406-.039062-.128906-.058594-.195312-.011718-.039062-.023437-.082031-.039062-.121094-.015625-.058594-.035156-.113281-.050782-.167968-.015624-.050782-.035156-.097657-.050781-.148438-.019531-.0625-.039062-.128906-.0625-.191406-.011719-.035156-.023437-.070313-.035156-.109375-.039063-.101563-.074219-.203125-.109375-.300781-.226562-.625-.484375-1.203126-.769531-1.742188-.070313-.136719-.144531-.265625-.21875-.398438-.039063-.066406-.074219-.125-.113281-.191406-.152344-.253906-.3125-.496094-.476563-.734375-.082031-.117187-.164063-.230469-.25-.34375-.296875-.394531-.613281-.757812-.9375-1.097656-.140625-.144531-.28125-.285156-.429687-.417969-.09375-.089844-.191407-.179687-.289063-.265625-.097656-.085937-.199219-.171875-.300781-.253906-.699219-.570313-1.441406-1.046875-2.195313-1.445313-.054687-.027343-.105469-.054687-.160156-.082031-1.511719-.765625-3.074219-1.207031-4.472656-1.457031-.152344-.027344-.296875-.054688-.445313-.074219-.339844-.054687-.667968-.09375-.984375-.128906-.042969-.003906-.089843-.011719-.132812-.015625-.707031-.066406-1.339844-.089844-1.847657-.09375-.03125 0-.0625 0-.09375 0s-.0625 0-.09375 0c-.027343 0-.058593 0-.085937 0-.21875.003906-.40625.007812-.566406.015625h-.003907c-.054687.003906-.109374.007813-.160156.007813-.003906 0-.011718.003906-.019531.003906-.011719 0-.023437 0-.035156 0-.007813 0-.015625 0-.023438.003906-.019531 0-.039062 0-.058593.003906-.03125 0-.054688.003906-.078126.003906-.070312.007813-.121093.011719-.148437.015626-.011719 0-.019531 0-.019531 0-.332032-1.207032-.882813-2.378907-1.699219-3.492188-.003906-.007812-.007813-.015625-.015625-.023438-.03125-.046874-.070312-.09375-.105469-.140624-.003906-.007813-.007812-.015626-.011719-.023438-.113281-.140625-.226562-.285156-.34375-.429688-.011718-.007812-.019531-.019531-.027343-.03125-.035157-.042968-.070313-.082031-.105469-.121093-.011719-.015625-.027344-.035157-.046875-.050781-.035156-.042969-.070313-.082032-.105469-.125-.003906 0-.003906-.003907-.007812-.007813-.078125-.085937-.160156-.175781-.242188-.261719-.015625-.011718-.027344-.023437-.039062-.039062-.035156-.039063-.074219-.078125-.113282-.117188-.015624-.015625-.03125-.03125-.046874-.050781-.039063-.039063-.078126-.074219-.117188-.117187-.015625-.015626-.035156-.03125-.050781-.046876-.125-.121093-.253907-.242187-.390625-.363281-.023438-.019531-.042969-.042969-.070313-.0625-.035156-.03125-.070312-.0625-.105469-.09375-.027343-.023437-.0625-.050781-.089843-.078125-.035157-.027344-.066407-.054687-.101563-.085937-.042968-.035157-.085937-.070313-.132812-.109375-.039063-.03125-.082032-.0625-.121094-.09375-.042969-.035156-.085938-.074219-.132812-.105469-.035157-.03125-.070313-.054687-.105469-.082031-.035157-.027344-.066407-.050782-.097657-.074219-.042968-.03125-.082031-.0625-.121093-.089844-.035157-.03125-.074219-.054687-.109375-.082031s-.066406-.050781-.101563-.074219c-.070312-.050781-.140625-.101562-.214843-.152343-.023438-.019532-.050782-.035157-.078126-.054688-.046874-.035156-.097656-.066406-.148437-.101562-.035156-.023438-.070313-.046876-.101563-.070313-.046874-.027344-.09375-.058594-.140624-.089844-.03125-.019531-.066407-.042969-.101563-.066406-.0625-.039063-.125-.082031-.1875-.121094-.03125-.019531-.066406-.042969-.097656-.0625-.066407-.039062-.128907-.078125-.195313-.113281-.03125-.019531-.0625-.039062-.09375-.058594-.054687-.035156-.113281-.066406-.171875-.101562-.027343-.015625-.058593-.03125-.085937-.050782-.074219-.039062-.144532-.078124-.214844-.121093-.019531-.007813-.039062-.019531-.054688-.027344-.089843-.050781-.183593-.101563-.277343-.152344-.019531-.007812-.039063-.019531-.054688-.03125-.074219-.035156-.148437-.074219-.21875-.113281-.03125-.015625-.0625-.03125-.097656-.050781-.066406-.03125-.132813-.066407-.203125-.101563-.027344-.015625-.058594-.027344-.085938-.042968-.195312-.09375-.390624-.191407-.589843-.28125-.035157-.015626-.066407-.03125-.101563-.042969-.066406-.035157-.136718-.0625-.207031-.09375-.035156-.019531-.070313-.035157-.101563-.046875-.082031-.035156-.160156-.070313-.242187-.105469-.023437-.011719-.050781-.023437-.078125-.035156-.105469-.042969-.210938-.089844-.316406-.132813-.023438-.007812-.042969-.019531-.066406-.027344-.085938-.035156-.175782-.070312-.261719-.105468-.035157-.015625-.074219-.027344-.109375-.042969-.078125-.03125-.15625-.058594-.234375-.089844-.035157-.015625-.070313-.03125-.105469-.042969-.113281-.042968-.226562-.085937-.339844-.125-1.710937-.625-3.835937-1.148437-6.210937-1.417968-.175781-.019532-.355469-.039063-.53125-.054688-.539063-.054687-1.082031-.089844-1.640625-.113281-.1875-.011719-.371094-.015625-.5625-.023437-.75-.019532-1.515625-.007813-2.292969.03125-.199219.007812-.390625.019531-.585937.03125-.097657.007812-.199219.015624-.296876.023437-.785156.0625-1.582031.15625-2.386718.289063-.300782.046874-.601563.101562-.90625.160156-.503906.097656-1.007813.210937-1.515625.339844-.101563.027343-.203125.050781-.304688.082031-.203125.050781-.40625.109375-.605469.167969-.203124.0625-.40625.121093-.609374.1875-.300782.09375-.605469.199218-.910157.308593-.503906.179688-1.007812.378907-1.507812.59375-5.113281 2.203125-9.984375 6.285157-13.457031 13.234375-.007813.015625-.015626.035156-.027344.050782-.050782.109374-.105469.21875-.160156.328124-.027344.050782-.050782.101563-.074219.15625-.035157.074219-.070313.148438-.109375.222657-.023438.054687-.050782.109375-.074219.167969-.035156.078124-.074219.15625-.109375.238281-.023438.050781-.046875.105469-.074219.15625-.03125.074219-.066406.148437-.097656.222656-.023437.058594-.050781.113281-.074219.167969-.039062.085937-.078125.171875-.113281.261718-.015625.042969-.039063.085938-.054687.128907-.042969.105469-.089844.207031-.128907.3125-.015625.027343-.027343.058593-.039062.085937-.050781.128906-.105469.261719-.15625.390625-.015625.042969-.03125.085938-.050781.128907-.035157.089843-.070313.179687-.105469.269531-.019531.058593-.042969.109375-.0625.167969-.03125.074218-.058594.152343-.089844.230468-.019531.058594-.042969.113282-.0625.167969-.03125.085937-.0625.171875-.089844.257813-.019531.046874-.035156.089843-.050781.140624-.035156.09375-.066406.1875-.101562.28125-.011719.042969-.027344.082032-.042969.125-.039063.109376-.078125.21875-.113281.332032-.007813.023437-.015626.046875-.023438.074218-.046875.132813-.089844.265626-.132812.398438-.015626.054688-.03125.101562-.046876.15625-.027343.082031-.054687.164062-.078124.25-.019532.054688-.035157.109375-.054688.167969-.023438.082031-.050781.160156-.074219.242187-.015625.058594-.03125.113282-.046875.171875-.027344.082031-.050781.164063-.074218.246094-.015626.054687-.03125.109375-.046876.160156-.023437.085938-.046874.171875-.070312.257813-.015625.054687-.03125.109375-.042969.160156-.03125.109375-.0625.21875-.089843.324219-.003907.027343-.015626.050781-.019532.074219-.035156.136718-.070312.277343-.109375.417968-.007812.027344-.011719.054688-.019531.085938-.027344.113281-.058594.230468-.085938.34375-.007812.03125-.015624.066406-.023437.097656-.027344.101562-.050781.203125-.074219.308594-.011718.042968-.023437.09375-.035156.136718-.023438.097657-.042969.191407-.066406.289063-.011719.042969-.019532.09375-.03125.140625-.019532.089844-.042969.183594-.0625.273438-.011719.046874-.019532.097656-.03125.144531-.023438.109375-.046875.214843-.070313.324219-.003906.027343-.011719.058593-.019531.089843-.027344.136719-.054688.277344-.082031.414063-.007813.03125-.011719.066406-.019531.097656-.023438.109375-.042969.21875-.0625.328125-.007813.039063-.015626.082031-.023438.121094-.019531.101562-.035156.203125-.054688.300781-.007812.042969-.015624.089844-.023437.136719-.019531.097656-.035156.195312-.050781.292969-.003906.039062-.011719.078124-.019532.117187-.015624.113281-.035156.222656-.054687.332031-.003906.03125-.007813.066406-.015625.097656-.015625.101563-.03125.203126-.046875.304688-.007813.042969-.015625.085938-.019531.128906-.042969.277344-.082032.550782-.117188.828125-.007812.042969-.011718.089844-.019531.132813-.011719.09375-.027344.1875-.039063.285156-.003906.050781-.011718.105469-.019531.160156-.007812.085938-.019531.167969-.03125.253906-.007812.050782-.011719.105469-.019531.15625-.007812.09375-.019531.183594-.03125.273438-.003906.046875-.007812.097656-.015625.148438-.011719.105468-.023437.207031-.035156.3125-.003907.03125-.003907.0625-.007813.09375-.015625.136718-.027344.277343-.042968.417968-.015626.144532-.027344.289063-.039063.433594-.003906.019531-.003906.039062-.007813.0625-.007812.113281-.019531.226562-.027343.339844-.003907.042968-.003907.085937-.007813.128906-.007812.097656-.019531.195312-.023437.296875-.003907.042969-.007813.085937-.011719.128906-.007812.097657-.011719.203125-.019531.300781 0 .035157-.003907.074219-.007813.109376-.007812.113281-.011718.226562-.019531.339843 0 .023438 0 .046875-.003906.070313-.015625.28125-.03125.5625-.042969.839844v.046874c-.007812.125-.011719.246094-.015625.371094 0 .03125 0 .0625-.003906.089844-.003907.097656-.003907.195312-.007813.292969-.003906.054687-.003906.105469-.003906.160156-.003906.089844-.003906.179687-.007812.269531 0 .039063 0 .078125-.003907.117188 0 .097656-.003906.195312-.003906.292968 0 .03125-.003906.058594-.003906.089844-3.660157.777344-6.007813 6.179688-5.28125 12.371094.726562 6.191406 4.25 10.902344 7.988281 10.816406.066406.375.136719.753906.203125 1.128906.011719.054688.023437.105469.03125.160157.054687.277343.109375.554687.164063.835937.011718.058594.027343.125.039062.1875.125.597656.253906 1.195313.394531 1.789063.015625.0625.03125.125.046875.191406.101563.425781.207032.855469.320313 1.28125.019531.066406.035156.136719.054687.203125.191406.734375.402344 1.460938.625 2.183594.027344.089844.054688.175781.082032.265625.140624.441406.285156.882812.433593 1.320312.054688.15625.109375.316407.167969.472657.109375.316406.226562.628906.34375.941406.339844.882812.699219 1.753906 1.09375 2.605468.089844.195313.179688.394532.273438.589844.210937.441406.433593.882813.660156 1.316406.152344.289063.308594.578126.46875.859376.191406.335937.386718.671874.589844 1 .136718.222656.269531.445312.410156.664062.261718.40625.53125.808594.8125 1.199219.199218.285156.40625.566406.617187.839843v2.648438l.003907 6.371094 6.109374 4.953125-6.109374-4.953125-5.882813 6.9375-.285156.09375-5.515625 1.863281-26.761719 9.042969c-1.027344.441406-2.015625.945312-2.964844 1.503906-7.179687 4.207031-12.113281 11.5-13.277343 19.859375l-3.414063 24.605469-.492187 3.527344-.414063 2.992187c-.015625.105469-.027344.210937-.042969.316406-.003906.035157-.007812.074219-.011718.109375-.007813.074219-.011719.148438-.019532.222656-.007812.066407-.011718.132813-.015625.199219-.003906.058594-.007812.109375-.011719.167969-.003906.070312-.007812.140625-.011718.210938v.039062c-.078125 1.863281.246094 3.664062.894531 5.304688 1.890625 4.757812 6.53125 8.199218 12.070313 8.199218h99.117187l-2.78125 20.023438-.492187 3.53125-.414063 2.992187c-.015625.101563-.027344.207031-.039063.3125-.003906.035157-.007812.074219-.011718.109375-.007813.078125-.019532.15625-.023438.230469-.003906.042969-.007812.082031-.011718.125-.003907.082031-.011719.160156-.015626.238281-.003906.070313-.007812.136719-.007812.207032 0 .011718 0 .027343-.003906.039062-.078125 1.890625.253906 3.710938.925781 5.367188 1.90625 4.726562 6.527344 8.136718 12.042969 8.136718h134.761718c5.425782 0 9.992188-3.304687 11.949219-7.910156.742188-1.714844 1.109375-3.609375 1.027344-5.585938zm0 0" fill="#382b73"/><path d="m229.710938 146.203125c.105468 1.996094.316406 3.980469.613281 5.90625.089843.578125.195312 1.160156.316406 1.753906.617187 3.261719 1.527344 6.4375 2.683594 9.46875.140625.351563.28125.71875.417969 1.070313.265624.648437.527343 1.28125.824218 1.910156.335938.753906.6875 1.507812 1.070313 2.242188.421875.859374.878906 1.683593 1.332031 2.507812.039062.070312.089844.140625.105469.195312.441406.734376.878906 1.453126 1.332031 2.171876.019531.050781.070312.125.125.195312.226562.367188.453125.734375.699219 1.085938l-5.90625 16.605468c-.5625 1.542969.019531 3.050782 1.121093 3.925782.875.703124 2.105469.984374 3.347657.546874l16.554687-5.894531c9.046875 6.15625 19.953125 9.75 31.714844 9.75 2.929688 0 5.789062-.230469 8.59375-.648437 26.289062-4.011719 46.597656-26.167969 47.796875-53.265625.011719-.289063.023437-.574219.03125-.863281.019531-.558594.039063-1.121094.039063-1.679688 0-.261719 0-.527344-.015626-.789062 0-.472657-.019531-.949219-.039062-1.421876-.035156-.789062-.070312-1.558593-.140625-2.332031-.03125-.507812-.085937-1-.136719-1.507812-2.980468-28.019531-26.476562-49.933594-55.199218-50.390625-29.296876-.457032-53.984376 21.953125-57.050782 50.460937-.054687.476563-.105468.945313-.140625 1.4375-.035156.492188-.070312 1-.089843 1.507813-.035157.40625-.050782.824218-.050782 1.246094-.019531.59375-.035156 1.191406-.035156 1.789062 0 .578125.015625 1.15625.035156 1.734375 0 .4375.015625.859375.050782 1.28125zm0 0" fill="#382b73"/><path d="m243.578125 329.628906h-134.757813c-7.878906 0-13.9375-6.957031-12.855468-14.765625l4.320312-31.125c1.316406-9.46875 7.472656-17.566406 16.242188-21.367187l14.957031-5.046875 5.777344-1.953125c.003906-.003906.003906-.003906.003906-.003906l11.542969-3.898438 6.164062-2.078125h42.457032l14.449218 4.878906 1.417969.476563 22.574219 7.625c8.773437 3.800781 14.925781 11.898437 16.242187 21.363281l1.472657 10.578125 1.730468 12.484375 1.121094 8.066406c1.078125 7.808594-4.980469 14.765625-12.859375 14.765625zm0 0" fill="#1cade3"/><path d="m100.289062 287.984375c1.316407-9.464844 7.46875-17.5625 16.238282-21.367187l38.441406-12.984376h42.457031l38.445313 12.984376c8.769531 3.804687 14.921875 11.898437 16.238281 21.367187l4.273437 30.777344c.207032-1.253907.234376-2.5625.046876-3.898438l-4.320313-31.125c-1.316406-9.46875-7.46875-17.5625-16.238281-21.367187l-38.445313-12.984375h-42.453125l-38.445312 12.984375c-8.769532 3.804687-14.921875 11.898437-16.238282 21.367187l-4.324218 31.125c-.183594 1.335938-.15625 2.644531.050781 3.898438zm0 0" fill="#23c1e6"/><path d="m256.019531 311.871094c-1.585937 5.300781-6.496093 9.265625-12.441406 9.265625h-134.757813c-5.945312 0-10.855468-3.964844-12.4375-9.265625l-.417968 2.992187c-1.082032 7.800781 4.980468 14.765625 12.855468 14.765625h134.757813c7.878906 0 13.941406-6.964844 12.855469-14.765625zm0 0" fill="#0099dc"/><path d="m203.835938 251.996094-6.40625-7.558594-21.230469 17.199219-21.226563-17.199219-6.40625 7.566406c-1.320312 2.871094-1.292968 6.183594.078125 9.035156l19.964844 41.492188 7.59375 15.777344 27.554687-57.273438c1.367188-2.851562 1.394532-6.164062.078126-9.039062zm0 0" fill="#e6e7e8"/><path d="m183.789062 302.53125-3.632812-30.421875h-7.914062l-3.632813 30.421875 7.589844 15.773438zm0 0" fill="#0099dc"/><path d="m154.96875 224.277344v13.789062l.003906 6.371094 21.226563 17.199219 21.230469-17.199219v-20.160156zm0 0" fill="#f6ca14"/><path d="m176.199219 261.636719-16.9375 21.460937-10.597657-22.050781c-1.382812-2.855469-1.414062-6.175781-.089843-9.058594l6.398437-7.550781zm0 0" fill="#d0d2d3"/><path d="m176.199219 261.636719 16.941406 21.460937 10.597656-22.050781c1.382813-2.855469 1.414063-6.175781.089844-9.058594l-6.398437-7.550781zm0 0" fill="#d0d2d3"/><path d="m184.171875 271.308594-5.847656 5.84375c-1.171875 1.175781-3.078125 1.175781-4.253907 0l-5.84375-5.84375c-1.175781-1.175782-1.175781-3.078125 0-4.253906l3.6875-3.6875c2.367188-2.363282 6.203126-2.363282 8.570313 0l3.6875 3.6875c1.175781 1.175781 1.175781 3.078124 0 4.253906zm0 0" fill="#23c1e6"/><path d="m182.816406 265.699219-4.492187 4.492187c-1.171875 1.171875-3.078125 1.171875-4.253907 0l-4.488281-4.492187-1.355469 1.355469c-1.171874 1.175781-1.171874 3.078124 0 4.253906l5.847657 5.84375c1.171875 1.175781 3.078125 1.175781 4.253906 0l5.847656-5.84375c1.171875-1.175782 1.171875-3.078125 0-4.253906zm0 0" fill="#1cade3"/><path d="m148.644531 265.28125c-1.015625-2.109375-1.292969-4.480469-.832031-6.730469-.160156-.800781-.234375-1.613281-.207031-2.429687l-10.335938 3.492187s0 0-.003906.003907l-5.78125 1.953124c-.703125 1.722657-1.039063 4.859376.691406 10.398438 3.269531 10.46875 4.539063 13.300781 4.539063 13.300781l9.199218-1.023437-5.941406 7.957031s5.574219 8.570313 12.3125 16.132813c8.277344 9.296874 23.914063 14.222656 23.914063 14.222656l-7.589844-15.785156zm0 0" fill="#0099dc"/><path d="m176.199219 318.304688-1.195313-2.488282h-1.601562v5.59375h5.59375v-5.59375h-1.597656zm0 0" fill="#0099dc"/><path d="m176.203125 318.316406s-15.636719-4.925781-23.914063-14.222656c-6.738281-7.5625-12.3125-16.132812-12.3125-16.132812l5.945313-7.957032-9.203125 1.023438s-1.273438-2.832032-4.539062-13.300782c-1.730469-5.539062-1.394532-8.675781-.691407-10.398437l5.78125-1.953125c.003907-.003906.003907-.003906.003907-.003906l11.539062-3.898438-.242188.53125c-1.320312 2.871094-1.289062 6.1875.078126 9.035156l19.964843 41.492188zm0 0" fill="#23c1e6"/><path d="m220.925781 261.542969-5.777343-1.953125c-.003907-.003906-.003907-.003906-.003907-.003906l-10.347656-3.496094c.023437.808594-.042969 1.617187-.199219 2.414062.464844 2.257813.1875 4.628906-.832031 6.746094l-19.964844 41.492188-7.589843 15.785156s15.636718-4.925782 23.914062-14.222656c6.738281-7.5625 12.3125-16.132813 12.3125-16.132813l-5.945312-7.957031 9.203124 1.023437s1.273438-2.832031 4.539063-13.300781c1.730469-5.539062 1.398437-8.671875.691406-10.394531zm0 0" fill="#0099dc"/><path d="m176.210938 318.285156s15.636718-4.921875 23.914062-14.222656c6.738281-7.558594 12.3125-16.132812 12.3125-16.132812l-5.945312-7.957032 9.203124 1.023438s1.273438-2.832032 4.539063-13.300782c1.730469-5.539062 1.394531-8.671874.691406-10.398437l-5.78125-1.953125c-.003906-.003906-.003906-.003906-.003906-.003906l-11.539063-3.898438.242188.53125c1.320312 2.871094 1.289062 6.183594-.078125 9.035156l-19.964844 41.492188zm0 0" fill="#23c1e6"/><path d="m206.625 197.527344c0 17.976562-3.253906 47.835937-30.425781 47.835937s-30.429688-29.859375-30.429688-47.835937c0-17.976563 2.832031-32.550782 30.429688-32.550782 27.597656 0 30.425781 14.574219 30.425781 32.550782zm0 0" fill="#fff235"/><path d="m176.199219 236.871094c-25.117188 0-29.796875-25.511719-30.359375-43.570313-.046875 1.386719-.066406 2.796875-.066406 4.226563 0 17.980468 3.253906 47.835937 30.425781 47.835937s30.429687-29.859375 30.429687-47.835937c0-1.429688-.019531-2.839844-.066406-4.226563-.566406 18.058594-5.246094 43.570313-30.363281 43.570313zm0 0" fill="#fddd3a"/><path d="m153.222656 202.914062c.753906 6.410157-1.789062 11.980469-5.675781 12.4375-3.890625.453126-7.648437-4.375-8.402344-10.789062-.75-6.414062 1.792969-11.984375 5.679688-12.4375 3.890625-.453125 7.648437 4.378906 8.398437 10.789062zm0 0" fill="#fff235"/><path d="m198.878906 202.914062c-.75 6.410157 1.792969 11.980469 5.679688 12.4375 3.886718.453126 7.648437-4.375 8.398437-10.789062.753907-6.414062-1.789062-11.984375-5.675781-12.4375-3.890625-.453125-7.648438 4.378906-8.402344 10.789062zm0 0" fill="#fff235"/><path d="m147.265625 204.703125c-.390625-3.324219-.3125-6.433594.125-8.964844-.164063 0-.332031.003907-.5.023438-3.085937.359375-5.152344 4.363281-4.613281 8.941406.535156 4.574219 3.46875 7.992187 6.554687 7.632813.066407-.011719.125-.027344.191407-.039063-.804688-2.164063-1.425782-4.765625-1.757813-7.59375zm0 0" fill="#fddd3a"/><path d="m205.132812 204.703125c.390626-3.324219.316407-6.433594-.125-8.964844.167969 0 .335938.003907.503907.023438 3.082031.359375 5.148437 4.363281 4.613281 8.941406-.214844 1.828125-.828125 3.65625-1.917969 5.15625-.460937.628906-1.007812 1.203125-1.648437 1.648437-.46875.324219-1.398438.917969-1.992188.800782.054688-.386719-.003906-.792969-.171875-1.148438-.042969-.097656-.09375-.1875-.136719-.285156-.378906-.871094.15625-2.003906.339844-2.875.226563-1.089844.40625-2.191406.535156-3.296875zm0 0" fill="#fddd3a"/><path d="m191.605469 178.527344s-6.542969 10.121094-17.910157 11.058594c-11.371093.933593-19.382812 1.628906-22.546874 7.234374-3.164063 5.605469.082031 16.167969-2.441407 16.167969-2.519531 0-8.402343-24.199219.320313-41.644531 8.71875-17.441406 26.222656-16.800781 34.320312-13.839844 8.097656 2.957032 10.746094 7.628906 10.746094 12.457032.003906 4.828124-2.488281 8.566406-2.488281 8.566406zm0 0" fill="#1cade3"/><path d="m188.292969 159.925781c1.101562 1.832031 1.558593 3.796875 1.558593 5.792969 0 4.828125-2.492187 8.566406-2.492187 8.566406s-6.542969 10.121094-17.910156 11.054688c-11.371094.933594-19.382813 1.628906-22.546875 7.234375-1.953125 3.460937-1.460938 8.808593-1.394532 12.394531.9375 4.859375 2.289063 8.019531 3.199219 8.019531 2.523438 0-.722656-10.558593 2.441407-16.167969 3.164062-5.605468 11.175781-6.296874 22.546874-7.230468 11.367188-.9375 17.910157-11.058594 17.910157-11.058594s2.492187-3.738281 2.492187-8.566406c0-3.664063-1.53125-7.238282-5.804687-10.039063zm0 0" fill="#0099dc"/><path d="m193.6875 166.835938s11.785156-1.289063 15.410156 8.683593c4.78125 13.164063-2.316406 36.832031-4.453125 36.832031-2.132812 0 .710938-11.605468-2.507812-21.988281-3.210938-10.382812-10.992188-11.183593-10.992188-11.183593zm0 0" fill="#1cade3"/><path d="m206.382812 186.117188c-3.210937-10.382813-10.992187-11.183594-10.992187-11.183594l1.65625-8.046875c-1.96875-.203125-3.359375-.050781-3.359375-.050781l-2.542969 12.34375s7.78125.800781 10.996094 11.183593c3.214844 10.382813.375 21.988281 2.507813 21.988281.75 0 2.117187-2.9375 3.367187-7.3125-.066406-4.140624.570313-11.816406-1.632813-18.921874zm0 0" fill="#0099dc"/><path d="m149.875 173.46875c8.722656-17.441406 26.226562-16.800781 34.324219-13.839844 5.054687 1.84375 7.984375 4.359375 9.472656 7.164063-1.023437-3.644531-4.023437-6.984375-10.324219-9.285157-8.097656-2.960937-25.601562-3.601562-34.320312 13.839844-7.511719 15.019532-4.195313 35.046875-1.515625 40.324219-2.402344-7.300781-4.359375-24.757813 2.363281-38.203125zm0 0" fill="#23c1e6"/><path d="m209.097656 175.519531c-3.625-9.976562-15.410156-8.683593-15.410156-8.683593l-.429688 2.074218c2.761719-.074218 11.527344.371094 14.566407 8.730469 3.882812 10.683594-.0625 28.289063-2.832031 34.542969 2.457031-2.128906 8.652343-24.148438 4.105468-36.664063zm0 0" fill="#23c1e6"/><path d="m176.199219 261.636719-18.40625 18.40625-9.132813-18.996094c-1.378906-2.855469-1.414062-6.175781-.089844-9.058594l6.402344-7.550781zm0 0" fill="#fff"/><path d="m176.199219 261.636719 18.410156 18.410156 9.128906-19.003906c1.382813-2.851563 1.414063-6.175781.089844-9.058594l-6.398437-7.546875zm0 0" fill="#fff"/><path d="m351.863281 370.945312h-134.761719c-7.878906 0-13.9375-6.960937-12.855468-14.769531l4.320312-31.125c1.316406-9.464843 7.472656-17.566406 16.242188-21.363281l14.957031-5.050781 5.777344-1.949219c.003906-.003906.003906-.003906.003906-.003906l11.542969-3.902344 6.164062-2.078125h42.457032l14.449218 4.882813 1.417969.476562 22.574219 7.621094c8.773437 3.800781 14.925781 11.898437 16.242187 21.367187l1.472657 10.578125 1.734374 12.484375 1.117188 8.0625c1.082031 7.808594-4.976562 14.769531-12.855469 14.769531zm0 0" fill="#ee5a9c"/><path d="m208.570312 329.296875c1.316407-9.464844 7.46875-17.5625 16.238282-21.363281l38.445312-12.984375h42.453125l38.445313 12.984375c8.769531 3.800781 14.921875 11.894531 16.238281 21.363281l4.273437 30.777344c.207032-1.253907.234376-2.5625.046876-3.894531l-4.320313-31.128907c-1.316406-9.464843-7.46875-17.5625-16.238281-21.363281l-38.445313-12.984375h-42.453125l-38.445312 12.984375c-8.769532 3.800781-14.925782 11.898438-16.238282 21.363281l-4.324218 31.128907c-.1875 1.332031-.15625 2.640624.046875 3.894531zm0 0" fill="#ef6ea8"/><path d="m364.300781 353.183594c-1.585937 5.300781-6.492187 9.265625-12.4375 9.265625h-134.757812c-5.949219 0-10.855469-3.964844-12.441407-9.265625l-.417968 2.992187c-1.082032 7.804688 4.980468 14.765625 12.859375 14.765625h134.757812c7.875 0 13.9375-6.960937 12.855469-14.765625zm0 0" fill="#e43c90"/><g fill="#fddd3a"><path d="m263.253906 265.589844v20.160156l21.226563 17.203125 21.230469-17.203125v-20.160156zm0 0"/><path d="m314.910156 238.84375c0 17.972656-3.253906 47.832031-30.429687 47.832031-27.171875 0-30.425781-29.859375-30.425781-47.832031 0-17.980469 2.828124-32.550781 30.425781-32.550781 27.597656-.003907 30.429687 14.570312 30.429687 32.550781zm0 0"/><path d="m261.507812 244.226562c.753907 6.414063-1.789062 11.980469-5.679687 12.4375-3.886719.457032-7.644531-4.375-8.394531-10.789062s1.789062-11.980469 5.675781-12.433594c3.886719-.457031 7.648437 4.375 8.398437 10.785156zm0 0"/><path d="m307.164062 244.226562c-.753906 6.414063 1.789063 11.980469 5.679688 12.4375 3.886719.457032 7.644531-4.375 8.398438-10.789062.75-6.410156-1.789063-11.980469-5.679688-12.433594-3.886719-.457031-7.648438 4.375-8.398438 10.785156zm0 0"/></g><path d="m317.378906 216.832031c-3.621094-9.972656-15.410156-8.683593-15.410156-8.683593-1.011719-3.660157-4.011719-7.015626-10.335938-9.328126-8.097656-2.957031-25.601562-3.601562-34.324218 13.839844-5.160156 10.328125-4.027344 23.859375-2.242188 33.183594 1.261719 6.570312 4.695313 12.527344 9.742188 16.921875 11.277344 9.820313 28.066406 9.820313 39.339844.003906l1.109374-.96875c4.105469-3.574219 7.167969-8.195312 8.832032-13.375 2.871094-8.960937 6.378906-23.097656 3.289062-31.59375zm0 0" fill="#1cade3"/><path d="m257.308594 216.164062c8.722656-17.441406 26.226562-16.796874 34.324218-13.839843 6.328126 2.3125 9.328126 5.671875 10.335938 9.332031s11.789062-1.289062 15.410156 8.683594c.683594 1.882812 1.046875 4.046875 1.160156 6.367187.15625-3.644531-.140624-7.070312-1.160156-9.875-3.621094-9.972656-15.410156-8.683593-15.410156-8.683593-1.011719-3.660157-4.011719-7.015626-10.335938-9.328126-8.097656-2.957031-25.601562-3.601562-34.324218 13.839844-3.0625 6.125-3.90625 13.375-3.714844 20.210938.160156-5.757813 1.175781-11.617188 3.714844-16.707032zm0 0" fill="#23c1e6"/><path d="m314.089844 238.746094c-1.660156 5.183594-4.726563 9.804687-8.828125 13.378906l-1.113281.964844c-11.273438 9.820312-28.0625 9.816406-39.339844 0-5.042969-4.398438-8.480469-10.351563-9.738282-16.925782-.558593-2.921874-1.054687-6.261718-1.3125-9.789062-.574218 6.9375.253907 13.941406 1.3125 19.464844 1.257813 6.570312 4.695313 12.527344 9.738282 16.921875 11.277344 9.820312 28.066406 9.820312 39.339844.003906l1.113281-.96875c4.101562-3.574219 7.167969-8.195313 8.828125-13.375 2.496094-7.777344 5.464844-19.457031 4.183594-27.960937-.71875 6.445312-2.554688 13.199218-4.183594 18.285156zm0 0" fill="#0099dc"/><path d="m312.109375 293.300781-6.398437-7.550781h-42.457032l-6.398437 7.550781c-.015625.027344-.027344.058594-.042969.085938-1.851562 4.125.140625 8.976562 4.285156 10.789062l.578125.25c1.039063.457031 2.164063.691407 3.300781.691407h39.007813c1.136719 0 2.261719-.238282 3.300781-.691407l.578125-.25c4.144531-1.8125 6.136719-6.660156 4.28125-10.789062-.007812-.027344-.019531-.058594-.035156-.085938zm0 0" fill="#fff"/><path d="m307.867188 299.335938-.578126.253906c-1.042968.453125-2.164062.6875-3.300781.6875h-39.007812c-1.136719 0-2.261719-.234375-3.300781-.6875l-.578126-.253906c-2.28125-.996094-3.902343-2.914063-4.597656-5.125-1.265625 3.929687.722656 8.269531 4.597656 9.960937l.578126.253906c1.039062.453125 2.164062.6875 3.300781.6875h39.007812c1.136719 0 2.261719-.234375 3.300781-.6875l.578126-.253906c3.871093-1.691406 5.859374-6.035156 4.597656-9.960937-.695313 2.210937-2.316406 4.128906-4.597656 5.125zm0 0" fill="#d0d2d3"/><path d="m342.507812 128.398438c.402344 28.371093-20.605468 52.355468-47.851562 56.597656-2.804688.421875-5.664062.648437-8.59375.648437-11.765625 0-22.671875-3.59375-31.714844-9.746093l-16.554687 5.890624c-1.242188.4375-2.472657.160157-3.347657-.542968-1.101562-.875-1.683593-2.382813-1.121093-3.929688l5.910156-16.601562c-.246094-.351563-.472656-.71875-.703125-1.085938-.050781-.070312-.105469-.140625-.121094-.191406-.457031-.71875-.894531-1.441406-1.332031-2.175781-.019531-.050781-.070313-.121094-.105469-.191407-.453125-.824218-.910156-1.648437-1.332031-2.507812-.382813-.738281-.734375-1.492188-1.070313-2.246094-.296874-.628906-.558593-1.261718-.824218-1.910156-.136719-.347656-.277344-.71875-.417969-1.066406-1.15625-3.035156-2.066406-6.207032-2.683594-9.46875-.121093-.597656-.226562-1.175782-.316406-1.753906-.296875-1.929688-.507813-3.910157-.613281-5.910157-.035156-.417969-.050782-.839843-.050782-1.277343-.019531-.578126-.035156-1.15625-.035156-1.738282 0-.59375.015625-1.191406.035156-1.789062 0-.417969.019532-.839844.050782-1.246094.019531-.507812.054687-1.015625.089844-1.507812.050781-.488282.085937-.960938.140624-1.4375 3.066407-28.507813 27.753907-50.917969 57.050782-50.460938 28.722656.457031 52.21875 22.375 55.199218 50.390625.050782.507813.105469 1 .140626 1.507813.066406.773437.105468 1.542968.136718 2.332031.015625.46875.035156.945312.035156 1.417969zm0 0" fill="#ef5a9d"/><path d="m342.480469 131.058594c-.894531 27.402344-21.320313 49.894531-47.824219 53.9375-2.804688.421875-5.664062.648437-8.589844.648437-11.765625 0-22.671875-3.59375-31.71875-9.746093l-16.550781 5.890624c-1.246094.4375-2.472656.160157-3.347656-.542968l12.972656-10.90625c-3.382813-3.191406-6.382813-6.785156-8.890625-10.710938-.050781-.070312-.105469-.140625-.121094-.191406-.457031-.71875-.894531-1.441406-1.332031-2.175781-.019531-.050781-.070313-.121094-.105469-.191407-.453125-.824218-.910156-1.648437-1.332031-2.507812-.382813-.738281-.734375-1.492188-1.070313-2.246094-.296874-.628906-.558593-1.261718-.824218-1.910156-.136719-.347656-.277344-.71875-.417969-1.066406-1.15625-3.035156-2.066406-6.207032-2.683594-9.46875-.121093-.597656-.226562-1.175782-.316406-1.753906-.296875-1.929688-.507813-3.910157-.613281-5.910157-.035156-.417969-.050782-.839843-.050782-1.277343-.019531-.578126-.035156-1.15625-.035156-1.738282 0-.59375.015625-1.191406.035156-1.789062 0-.417969.019532-.839844.050782-1.246094.019531-.507812.054687-1.015625.089844-1.507812.035156-.488282.085937-.960938.140624-1.4375 3.066407 28.300781 27.019532 50.339843 56.125 50.339843 29.140626 0 53.109376-22.074219 56.125-50.410156.050782.507813.105469 1 .140626 1.507813.070312.773437.105468 1.542968.140624 2.332031.015626.476562.035157.949219.035157 1.421875.015625.261718.015625.527344.015625.789062 0 .609375-.019532 1.214844-.042969 1.820313-.003906.011719-.003906.03125-.003906.046875zm0 0" fill="#e43d91"/><path d="m324.433594 123.433594c2.074218-2.179688 1.578125-6.050782-1.488282-7.417969l-34.988281-15.640625c-1.203125-.539062-2.578125-.539062-3.78125 0l-34.984375 15.640625c-2.984375 1.332031-3.535156 5.035156-1.648437 7.242187 0 0 0 0 .003906.003907.050781.054687.097656.113281.152344.167969.003906.007812.007812.011718.015625.015624.054687.058594.109375.113282.167968.167969l.011719.011719c.054688.046875.105469.09375.160157.140625.011718.011719.023437.019531.035156.027344.058594.050781.121094.097656.183594.144531.003906.003906.007812.007812.011718.011719.058594.039062.117188.082031.179688.125.011718.011719.027344.019531.042968.027343.0625.042969.128907.085938.199219.125.003907.003907.007813.007813.015625.007813.0625.039063.128906.074219.195313.109375.019531.007812.035156.019531.054687.027344.070313.035156.144532.074218.21875.105468l1.558594.699219c-.066406.144531-.101562.304688-.101562.472657v13.132812c-1.4375.484375-2.472657 1.84375-2.472657 3.441406v4.480469c0 1.277344 1.035157 2.316406 2.316407 2.316406h2.628906c1.277344 0 2.316406-1.039062 2.316406-2.316406v-4.484375c0-1.597656-1.035156-2.957031-2.472656-3.441406v-12.234375l.542968-.136719 5.914063 2.644531v18.664063c0 1.847656 1.09375 3.515625 2.785156 4.25l22.011719 9.570312c1.179688.511719 2.515625.511719 3.695312 0l22.015626-9.570312c1.691406-.738282 2.785156-2.40625 2.785156-4.25v-18.667969l10.230468-4.574219c.078126-.03125.148438-.070312.21875-.105468.019532-.007813.039063-.015626.054688-.027344.066406-.035156.132812-.070313.195312-.109375.007813-.003907.011719-.003907.019532-.007813.070312-.039062.132812-.082031.199218-.125.015626-.007812.027344-.019531.042969-.027344.058594-.042968.121094-.082031.179688-.125.003906-.003906.007812-.007812.011719-.011718.0625-.046875.125-.09375.183593-.144532.011719-.007812.019531-.015624.035157-.027343.050781-.046875.105468-.09375.15625-.140625.003906-.003906.011718-.007813.015624-.011719.058594-.054687.113282-.113281.167969-.167969 0 0 .003907-.003906.007813-.007812zm0 0" fill="#e43d91"/><path d="m309.929688 146.703125-22.015626 9.570313c-1.175781.511718-2.515624.511718-3.695312 0l-22.011719-9.570313c-1.691406-.734375-2.785156-2.402344-2.785156-4.25v-19.457031h53.292969v19.457031c0 1.847656-1.09375 3.515625-2.785156 4.25zm0 0" fill="#f7cb15"/><path d="m259.421875 130.738281 24.757813 11.066407c1.203124.539062 2.578124.539062 3.78125 0l24.753906-11.066407v-7.742187h-53.292969zm0 0" fill="#e7ad27"/><path d="m284.179688 134.855469-34.988282-15.640625c-3.65625-1.636719-3.65625-6.828125 0-8.460938l34.988282-15.640625c1.203124-.539062 2.578124-.539062 3.78125 0l34.984374 15.640625c3.660157 1.632813 3.660157 6.824219 0 8.460938l-34.984374 15.640625c-1.203126.535156-2.582032.535156-3.78125 0zm0 0" fill="#fede3a"/><path d="m322.945312 114.578125-34.984374 15.640625c-1.203126.539062-2.578126.539062-3.78125 0l-34.988282-15.640625c-.964844-.429687-1.667968-1.113281-2.125-1.914063-1.269531 2.222657-.566406 5.347657 2.125 6.550782l34.988282 15.640625c1.203124.535156 2.578124.535156 3.78125 0l34.984374-15.640625c2.691407-1.203125 3.394532-4.328125 2.125-6.550782-.453124.800782-1.15625 1.484376-2.125 1.914063zm0 0" fill="#f7cb15"/><path d="m290.558594 111.960938c0-1.351563-2.011719-2.449219-4.492188-2.449219-2.476562 0-4.488281 1.097656-4.488281 2.449219 0 1.351562 2.011719 2.445312 4.488281 2.445312 2.480469 0 4.492188-1.09375 4.492188-2.445312zm0 0" fill="#f7cb15"/><path d="m286.066406 112.996094c-2.023437 0-3.714844-.734375-4.273437-1.742188-.128907.226563-.214844.460938-.214844.707032 0 1.351562 2.011719 2.449218 4.492187 2.449218 2.480469 0 4.488282-1.097656 4.488282-2.449218 0-.25-.085938-.484376-.210938-.707032-.5625 1.003906-2.253906 1.742188-4.28125 1.742188zm0 0" fill="#e7ad27"/><path d="m251.804688 141.921875c-.640626 0-1.15625-.519531-1.15625-1.15625v-20.382813c0-.527343.359374-.988281.871093-1.121093l34.261719-8.78125c.621094-.160157 1.253906.214843 1.410156.835937.160156.621094-.214844 1.25-.832031 1.410156l-33.390625 8.558594v19.476563c-.003906.640625-.519531 1.160156-1.164062 1.160156zm0 0" fill="#e7ad27"/><path d="m253.121094 143.757812h-2.628906c-1.277344 0-2.316407-1.039062-2.316407-2.320312v-4.476562c0-2.007813 1.625-3.632813 3.632813-3.632813 2.003906 0 3.632812 1.625 3.632812 3.632813v4.476562c-.003906 1.28125-1.039062 2.320312-2.320312 2.320312zm0 0" fill="#f7cb15"/><path d="m252.453125 143.757812h-1.292969c-.625 0-1.136718-.511718-1.136718-1.140624v-7.503907c0-.984375.800781-1.785156 1.785156-1.785156.988281 0 1.789062.800781 1.789062 1.785156v7.503907c-.003906.628906-.515625 1.140624-1.144531 1.140624zm0 0" fill="#fede3a"/></svg>